# xmcd CD database file
#
# Track frame offsets:
#	150
#	12369
#	24952
#	38029
#	49156
#	62207
#	75960
#	88777
#	102530
#	115685
#	127706
#	141225
#
# Disc length: 2038 seconds
#
# Revision: 0
# Processed by: cddbd v1.5.2PL0 Copyright (c) Steve Scherf et al.
# Submitted via: CDex 1.51
#
DISCID=9007f40c
DTITLE=Robert Johnson - Dust My Broom
DYEAR=2006
DGENRE=Blues
TTITLE0=Crossroads
TTITLE1=Traveling Riverside Blues
TTITLE2=Rambling On My Mind
TTITLE3=Love In Vain
TTITLE4=Kindhearted Woman
TTITLE5=Sweet Home Chicago
TTITLE6=Come On In My Kitchen
TTITLE7=Terraplane Blues
TTITLE8=32-20 Blues
TTITLE9=When You Got A Good Friend
TTITLE10=I Believe I'll Dust My Broom
TTITLE11=Hell Hound On My Trail
EXTD=YEAR: 2006
EXTT0=
EXTT1=
EXTT2=
EXTT3=
EXTT4=
EXTT5=
EXTT6=
EXTT7=
EXTT8=
EXTT9=
EXTT10=
EXTT11=
PLAYORDER=
